<svg xmlns="http://www.w3.org/2000/svg" width="1200" height="360" viewBox="0 0 1200 360" role="img" aria-labelledby="title desc">
  <title id="title">Signal Loom logo</title>
  <desc id="desc">Signal Loom icon and wordmark lockup.</desc>
  <rect width="1200" height="360" fill="#f6f5ef"/>
  <g transform="translate(82 74) scale(1.65625)">
    <rect width="128" height="128" rx="30" fill="#f6f5ef"/>
    <rect x="10" y="10" width="108" height="108" rx="25" fill="#fbfcfa" stroke="#17212b" stroke-width="6"/>
    <path d="M38 28 V100M64 28 V100M90 28 V100" fill="none" stroke="#17212b" stroke-width="8" stroke-linecap="round"/>
    <path d="M25 47 H48 C57 47 56 66 64 66 C72 66 71 47 80 47 H103" fill="none" stroke="#10b8a6" stroke-width="8" stroke-linecap="round" stroke-linejoin="round"/>
    <path d="M25 64 H103" fill="none" stroke="#f4b84a" stroke-width="8" stroke-linecap="round"/>
    <path d="M25 81 H49 C57 81 57 64 64 64 C72 64 71 81 80 81 H103" fill="none" stroke="#ef6f6c" stroke-width="8" stroke-linecap="round" stroke-linejoin="round"/>
    <path d="M38 28 V42M38 69 V76M38 86 V100M64 28 V58M64 72 V100M90 28 V42M90 69 V76M90 86 V100" fill="none" stroke="#17212b" stroke-width="8" stroke-linecap="round"/>
  </g>
  <text x="342" y="166" fill="#17212b" font-family="Avenir Next, ui-sans-serif, system-ui, -apple-system, BlinkMacSystemFont, 'Segoe UI', sans-serif" font-size="72" font-weight="760" letter-spacing="0">signal-loom</text>
  <text x="346" y="220" fill="#66716d" font-family="Avenir Next, ui-sans-serif, system-ui, -apple-system, BlinkMacSystemFont, 'Segoe UI', sans-serif" font-size="28" font-weight="450" letter-spacing="0">sources into searchable briefs</text>
</svg>
